# xmcd CD database file
#
# Track frame offsets:
#	150
#	15230
#	33255
#	48442
#	62875
#	82017
#	107052
#	118650
#	131417
#	150365
#	163052
#	180165
#	197225
#
# Disc length: 2767 seconds
#
# Revision: 1
# Processed by: cddbd v1.5.2PL0 Copyright (c) Steve Scherf et al.
# Submitted via: CDex 1.70beta2
#
DISCID=9d0acd0d
DTITLE=Madeline Bell - This Is One Girl
DYEAR=1976
DGENRE=Soul
TTITLE0=This Is One Girl (Bell-Kennedy)
TTITLE1=I Always Seem To Wind Up Loving You (Hawkshaw)
TTITLE2=Love Is All (Parker-Bell)
TTITLE3=Delta Lady (Russell)
TTITLE4=You've Got What It Takes (Hurdle-Bell-Poppy)
TTITLE5=I Think I'm Getting Over You (Cook-Greenaway)
TTITLE6=Dance Dance Dance (Cock-Flowers)
TTITLE7=Your Smile (Parker-Bell)
TTITLE8=That's The Way (Casey-Finch)
TTITLE9=So In Love (Parker-Bell)
TTITLE10=Who's Fooling Who (Bland)
TTITLE11=That's What Friends Are For (Parker-Bell)
TTITLE12=It Happened One Night  (Parker-Bell)
EXTD=YEAR: 1976
EXTT0=
EXTT1=
EXTT2=
EXTT3=
EXTT4=
EXTT5=
EXTT6=
EXTT7=
EXTT8=
EXTT9=
EXTT10=
EXTT11=
EXTT12=
PLAYORDER=
